<svg width="17" height="18" viewBox="0 0 17 18" fill="none" xmlns="http://www.w3.org/2000/svg">
<path fill-rule="evenodd" clip-rule="evenodd" d="M8.5 2.25C7.61358 2.25 6.73583 2.42459 5.91689 2.76381C5.09794 3.10303 4.35382 3.60023 3.72703 4.22703C3.10023 4.85382 2.60303 5.59794 2.26381 6.41689C1.92459 7.23583 1.75 8.11358 1.75 9C1.75 9.88642 1.92459 10.7642 2.26381 11.5831C2.60303 12.4021 3.10023 13.1462 3.72703 13.773C4.35382 14.3998 5.09794 14.897 5.91689 15.2362C6.73583 15.5754 7.61358 15.75 8.5 15.75C10.2902 15.75 12.0071 15.0388 13.273 13.773C14.5388 12.5071 15.25 10.7902 15.25 9C15.25 7.20979 14.5388 5.4929 13.273 4.22703C12.0071 2.96116 10.2902 2.25 8.5 2.25ZM0.25 9C0.25 4.44375 3.94375 0.75 8.5 0.75C13.0562 0.75 16.75 4.44375 16.75 9C16.75 13.5562 13.0562 17.25 8.5 17.25C3.94375 17.25 0.25 13.5562 0.25 9Z" fill="#00D08E"/>
<path fill-rule="evenodd" clip-rule="evenodd" d="M12.706 6.74995L6.9115 12.5445L4 9.0697L5.13325 8.0872L6.99025 10.3447L11.6455 5.68945L12.706 6.74995Z" fill="#00D08E"/>
</svg>
