<svg width="15" height="18" viewBox="0 0 15 18" fill="none" xmlns="http://www.w3.org/2000/svg">
<path d="M13.0417 0.583374C13.4616 0.583374 13.8643 0.750189 14.1613 1.04712C14.4582 1.34405 14.625 1.74678 14.625 2.16671V11.6667C14.625 12.0866 14.4582 12.4894 14.1613 12.7863C13.8643 13.0832 13.4616 13.25 13.0417 13.25H11.4583V14.8334C11.4583 15.2533 11.2915 15.656 10.9946 15.953C10.6977 16.2499 10.2949 16.4167 9.875 16.4167H1.95833C1.53841 16.4167 1.13568 16.2499 0.838748 15.953C0.541815 15.656 0.375 15.2533 0.375 14.8334V5.33337C0.375 4.91345 0.541815 4.51072 0.838748 4.21379C1.13568 3.91686 1.53841 3.75004 1.95833 3.75004H3.54167V2.16671C3.54167 1.74678 3.70848 1.34405 4.00541 1.04712C4.30235 0.750189 4.70507 0.583374 5.125 0.583374H13.0417ZM9.875 5.33337H1.95833V14.8334H9.875V5.33337ZM5.91667 10.875C6.12663 10.875 6.32799 10.9584 6.47646 11.1069C6.62493 11.2554 6.70833 11.4567 6.70833 11.6667C6.70833 11.8767 6.62493 12.078 6.47646 12.2265C6.32799 12.375 6.12663 12.4584 5.91667 12.4584H4.33333C4.12337 12.4584 3.92201 12.375 3.77354 12.2265C3.62507 12.078 3.54167 11.8767 3.54167 11.6667C3.54167 11.4567 3.62507 11.2554 3.77354 11.1069C3.92201 10.9584 4.12337 10.875 4.33333 10.875H5.91667ZM13.0417 2.16671H5.125V3.75004H9.875C10.2949 3.75004 10.6977 3.91686 10.9946 4.21379C11.2915 4.51072 11.4583 4.91345 11.4583 5.33337V11.6667H13.0417V2.16671ZM7.5 7.70837C7.70178 7.7086 7.89586 7.78586 8.04258 7.92438C8.18931 8.0629 8.2776 8.25221 8.28943 8.45364C8.30125 8.65508 8.23572 8.85342 8.10621 9.00816C7.9767 9.16289 7.79299 9.26233 7.59262 9.28617L7.5 9.29171H4.33333C4.13155 9.29148 3.93747 9.21422 3.79075 9.0757C3.64403 8.93719 3.55573 8.74787 3.54391 8.54644C3.53208 8.345 3.59762 8.14666 3.72713 7.99192C3.85664 7.83719 4.04034 7.73775 4.24071 7.71392L4.33333 7.70837H7.5Z" fill="white"/>
</svg>
