<svg width="23" height="16" viewBox="0 0 23 16" fill="none" xmlns="http://www.w3.org/2000/svg">
<path d="M18.8874 2.27924C17.4195 1.04665 15.658 0.430353 13.7987 0.327637L13.5051 0.635782C15.1687 1.04665 16.6366 1.86838 18.0067 2.99825C16.343 2.07381 14.4837 1.45751 12.5265 1.25208C11.9393 1.14936 11.45 1.14936 10.8629 1.14936C10.2757 1.14936 9.78645 1.14936 9.1993 1.25208C7.24209 1.45751 5.38277 2.07381 3.71916 2.99825C5.0892 1.86838 6.55711 1.04665 8.2207 0.635782L7.92713 0.327637C6.06779 0.430353 4.30632 1.04665 2.83843 2.27924C1.17482 5.56615 0.294087 9.26391 0.196228 13.0644C1.66412 14.7079 3.71916 15.735 5.87207 15.735C5.87207 15.735 6.55711 14.9133 7.04636 14.1943C5.77421 13.8861 4.5999 13.1671 3.81702 12.0372C4.50204 12.4481 5.18706 12.859 5.87207 13.1671C6.75279 13.578 7.63356 13.7834 8.51427 13.9889C9.29714 14.0916 10.08 14.1943 10.8629 14.1943C11.6458 14.1943 12.4286 14.0916 13.2115 13.9889C14.0923 13.7834 14.973 13.578 15.8537 13.1671C16.5387 12.859 17.2238 12.4481 17.9088 12.0372C17.1259 13.1671 15.9516 13.8861 14.6794 14.1943C15.1687 14.9133 15.8537 15.735 15.8537 15.735C18.0067 15.735 20.0616 14.7079 21.5296 13.0644C21.4317 9.26391 20.5509 5.56615 18.8874 2.27924ZM7.63356 11.2156C6.65495 11.2156 5.77421 10.2911 5.77421 9.16122C5.77421 8.03132 6.65495 7.10688 7.63356 7.10688C8.61211 7.10688 9.49288 8.03132 9.49288 9.16122C9.49288 10.2911 8.61211 11.2156 7.63356 11.2156ZM14.0923 11.2156C13.1137 11.2156 12.2329 10.2911 12.2329 9.16122C12.2329 8.03132 13.1137 7.10688 14.0923 7.10688C15.0708 7.10688 15.9516 8.03132 15.9516 9.16122C15.9516 10.2911 15.0708 11.2156 14.0923 11.2156Z" fill="#636FE9"/>
</svg>
